<mxfile host="app.diagrams.net" agent="Mozilla/5.0 (X11; Linux x86_64) AppleWebKit/537.36 (KHTML, like Gecko) Chrome/134.0.0.0 Safari/537.36" version="26.1.1">
  <diagram name="第 1 页" id="Y5YOEu1n1G81mtxXe9f7">
    <mxGraphModel dx="2632" dy="1478" grid="1" gridSize="10" guides="1" tooltips="1" connect="1" arrows="1" fold="1" page="1" pageScale="1" pageWidth="827" pageHeight="1169" math="0" shadow="0">
      <root>
        <mxCell id="0" />
        <mxCell id="1" parent="0" />
        <mxCell id="tzgHff-u2JWfcK4r_l2z-1" value="" style="shape=table;startSize=0;container=1;collapsible=0;childLayout=tableLayout;" vertex="1" parent="1">
          <mxGeometry x="50" y="330" width="90" height="250" as="geometry" />
        </mxCell>
        <mxCell id="tzgHff-u2JWfcK4r_l2z-2" value="" style="shape=tableRow;horizontal=0;startSize=0;swimlaneHead=0;swimlaneBody=0;strokeColor=inherit;top=0;left=0;bottom=0;right=0;collapsible=0;dropTarget=0;fillColor=none;points=[[0,0.5],[1,0.5]];portConstraint=eastwest;" vertex="1" parent="tzgHff-u2JWfcK4r_l2z-1">
          <mxGeometry width="90" height="63" as="geometry" />
        </mxCell>
        <mxCell id="tzgHff-u2JWfcK4r_l2z-3" value="&lt;font style=&quot;font-size: 16px;&quot;&gt;lock 48&lt;/font&gt;" style="shape=partialRectangle;html=1;whiteSpace=wrap;connectable=0;strokeColor=inherit;overflow=hidden;fillColor=none;top=0;left=0;bottom=0;right=0;pointerEvents=1;" vertex="1" parent="tzgHff-u2JWfcK4r_l2z-2">
          <mxGeometry width="90" height="63" as="geometry">
            <mxRectangle width="90" height="63" as="alternateBounds" />
          </mxGeometry>
        </mxCell>
        <mxCell id="tzgHff-u2JWfcK4r_l2z-4" value="" style="shape=tableRow;horizontal=0;startSize=0;swimlaneHead=0;swimlaneBody=0;strokeColor=inherit;top=0;left=0;bottom=0;right=0;collapsible=0;dropTarget=0;fillColor=none;points=[[0,0.5],[1,0.5]];portConstraint=eastwest;" vertex="1" parent="tzgHff-u2JWfcK4r_l2z-1">
          <mxGeometry y="63" width="90" height="62" as="geometry" />
        </mxCell>
        <mxCell id="tzgHff-u2JWfcK4r_l2z-5" value="&lt;font style=&quot;font-size: 16px;&quot;&gt;lock 32&lt;/font&gt;" style="shape=partialRectangle;html=1;whiteSpace=wrap;connectable=0;strokeColor=inherit;overflow=hidden;fillColor=none;top=0;left=0;bottom=0;right=0;pointerEvents=1;" vertex="1" parent="tzgHff-u2JWfcK4r_l2z-4">
          <mxGeometry width="90" height="62" as="geometry">
            <mxRectangle width="90" height="62" as="alternateBounds" />
          </mxGeometry>
        </mxCell>
        <mxCell id="tzgHff-u2JWfcK4r_l2z-6" value="" style="shape=tableRow;horizontal=0;startSize=0;swimlaneHead=0;swimlaneBody=0;strokeColor=inherit;top=0;left=0;bottom=0;right=0;collapsible=0;dropTarget=0;fillColor=none;points=[[0,0.5],[1,0.5]];portConstraint=eastwest;" vertex="1" parent="tzgHff-u2JWfcK4r_l2z-1">
          <mxGeometry y="125" width="90" height="63" as="geometry" />
        </mxCell>
        <mxCell id="tzgHff-u2JWfcK4r_l2z-7" value="&lt;font style=&quot;font-size: 16px;&quot;&gt;lock 16&lt;/font&gt;" style="shape=partialRectangle;html=1;whiteSpace=wrap;connectable=0;strokeColor=inherit;overflow=hidden;fillColor=none;top=0;left=0;bottom=0;right=0;pointerEvents=1;" vertex="1" parent="tzgHff-u2JWfcK4r_l2z-6">
          <mxGeometry width="90" height="63" as="geometry">
            <mxRectangle width="90" height="63" as="alternateBounds" />
          </mxGeometry>
        </mxCell>
        <mxCell id="tzgHff-u2JWfcK4r_l2z-8" value="" style="shape=tableRow;horizontal=0;startSize=0;swimlaneHead=0;swimlaneBody=0;strokeColor=inherit;top=0;left=0;bottom=0;right=0;collapsible=0;dropTarget=0;fillColor=none;points=[[0,0.5],[1,0.5]];portConstraint=eastwest;" vertex="1" parent="tzgHff-u2JWfcK4r_l2z-1">
          <mxGeometry y="188" width="90" height="62" as="geometry" />
        </mxCell>
        <mxCell id="tzgHff-u2JWfcK4r_l2z-9" value="&lt;font style=&quot;font-size: 16px;&quot;&gt;lock 0&lt;/font&gt;" style="shape=partialRectangle;html=1;whiteSpace=wrap;connectable=0;strokeColor=inherit;overflow=hidden;fillColor=none;top=0;left=0;bottom=0;right=0;pointerEvents=1;" vertex="1" parent="tzgHff-u2JWfcK4r_l2z-8">
          <mxGeometry width="90" height="62" as="geometry">
            <mxRectangle width="90" height="62" as="alternateBounds" />
          </mxGeometry>
        </mxCell>
        <mxCell id="tzgHff-u2JWfcK4r_l2z-10" value="" style="shape=table;startSize=0;container=1;collapsible=0;childLayout=tableLayout;" vertex="1" parent="1">
          <mxGeometry x="200" y="330" width="90" height="250" as="geometry" />
        </mxCell>
        <mxCell id="tzgHff-u2JWfcK4r_l2z-11" value="" style="shape=tableRow;horizontal=0;startSize=0;swimlaneHead=0;swimlaneBody=0;strokeColor=inherit;top=0;left=0;bottom=0;right=0;collapsible=0;dropTarget=0;fillColor=none;points=[[0,0.5],[1,0.5]];portConstraint=eastwest;" vertex="1" parent="tzgHff-u2JWfcK4r_l2z-10">
          <mxGeometry width="90" height="63" as="geometry" />
        </mxCell>
        <mxCell id="tzgHff-u2JWfcK4r_l2z-12" value="&lt;font style=&quot;font-size: 16px;&quot;&gt;lock 49&lt;/font&gt;" style="shape=partialRectangle;html=1;whiteSpace=wrap;connectable=0;strokeColor=inherit;overflow=hidden;fillColor=none;top=0;left=0;bottom=0;right=0;pointerEvents=1;" vertex="1" parent="tzgHff-u2JWfcK4r_l2z-11">
          <mxGeometry width="90" height="63" as="geometry">
            <mxRectangle width="90" height="63" as="alternateBounds" />
          </mxGeometry>
        </mxCell>
        <mxCell id="tzgHff-u2JWfcK4r_l2z-13" value="" style="shape=tableRow;horizontal=0;startSize=0;swimlaneHead=0;swimlaneBody=0;strokeColor=inherit;top=0;left=0;bottom=0;right=0;collapsible=0;dropTarget=0;fillColor=none;points=[[0,0.5],[1,0.5]];portConstraint=eastwest;" vertex="1" parent="tzgHff-u2JWfcK4r_l2z-10">
          <mxGeometry y="63" width="90" height="62" as="geometry" />
        </mxCell>
        <mxCell id="tzgHff-u2JWfcK4r_l2z-14" value="&lt;font style=&quot;font-size: 16px;&quot;&gt;lock 33&lt;/font&gt;" style="shape=partialRectangle;html=1;whiteSpace=wrap;connectable=0;strokeColor=inherit;overflow=hidden;fillColor=none;top=0;left=0;bottom=0;right=0;pointerEvents=1;" vertex="1" parent="tzgHff-u2JWfcK4r_l2z-13">
          <mxGeometry width="90" height="62" as="geometry">
            <mxRectangle width="90" height="62" as="alternateBounds" />
          </mxGeometry>
        </mxCell>
        <mxCell id="tzgHff-u2JWfcK4r_l2z-15" value="" style="shape=tableRow;horizontal=0;startSize=0;swimlaneHead=0;swimlaneBody=0;strokeColor=inherit;top=0;left=0;bottom=0;right=0;collapsible=0;dropTarget=0;fillColor=none;points=[[0,0.5],[1,0.5]];portConstraint=eastwest;" vertex="1" parent="tzgHff-u2JWfcK4r_l2z-10">
          <mxGeometry y="125" width="90" height="63" as="geometry" />
        </mxCell>
        <mxCell id="tzgHff-u2JWfcK4r_l2z-16" value="&lt;font style=&quot;font-size: 16px;&quot;&gt;lock 17&lt;/font&gt;" style="shape=partialRectangle;html=1;whiteSpace=wrap;connectable=0;strokeColor=inherit;overflow=hidden;fillColor=none;top=0;left=0;bottom=0;right=0;pointerEvents=1;" vertex="1" parent="tzgHff-u2JWfcK4r_l2z-15">
          <mxGeometry width="90" height="63" as="geometry">
            <mxRectangle width="90" height="63" as="alternateBounds" />
          </mxGeometry>
        </mxCell>
        <mxCell id="tzgHff-u2JWfcK4r_l2z-17" value="" style="shape=tableRow;horizontal=0;startSize=0;swimlaneHead=0;swimlaneBody=0;strokeColor=inherit;top=0;left=0;bottom=0;right=0;collapsible=0;dropTarget=0;fillColor=none;points=[[0,0.5],[1,0.5]];portConstraint=eastwest;" vertex="1" parent="tzgHff-u2JWfcK4r_l2z-10">
          <mxGeometry y="188" width="90" height="62" as="geometry" />
        </mxCell>
        <mxCell id="tzgHff-u2JWfcK4r_l2z-18" value="&lt;font style=&quot;font-size: 16px;&quot;&gt;lock 1&lt;/font&gt;" style="shape=partialRectangle;html=1;whiteSpace=wrap;connectable=0;strokeColor=inherit;overflow=hidden;fillColor=none;top=0;left=0;bottom=0;right=0;pointerEvents=1;" vertex="1" parent="tzgHff-u2JWfcK4r_l2z-17">
          <mxGeometry width="90" height="62" as="geometry">
            <mxRectangle width="90" height="62" as="alternateBounds" />
          </mxGeometry>
        </mxCell>
        <mxCell id="tzgHff-u2JWfcK4r_l2z-19" value="" style="shape=table;startSize=0;container=1;collapsible=0;childLayout=tableLayout;" vertex="1" parent="1">
          <mxGeometry x="680" y="330" width="90" height="250" as="geometry" />
        </mxCell>
        <mxCell id="tzgHff-u2JWfcK4r_l2z-20" value="" style="shape=tableRow;horizontal=0;startSize=0;swimlaneHead=0;swimlaneBody=0;strokeColor=inherit;top=0;left=0;bottom=0;right=0;collapsible=0;dropTarget=0;fillColor=none;points=[[0,0.5],[1,0.5]];portConstraint=eastwest;" vertex="1" parent="tzgHff-u2JWfcK4r_l2z-19">
          <mxGeometry width="90" height="63" as="geometry" />
        </mxCell>
        <mxCell id="tzgHff-u2JWfcK4r_l2z-21" value="&lt;font style=&quot;font-size: 16px;&quot;&gt;lock 63&lt;/font&gt;" style="shape=partialRectangle;html=1;whiteSpace=wrap;connectable=0;strokeColor=inherit;overflow=hidden;fillColor=none;top=0;left=0;bottom=0;right=0;pointerEvents=1;" vertex="1" parent="tzgHff-u2JWfcK4r_l2z-20">
          <mxGeometry width="90" height="63" as="geometry">
            <mxRectangle width="90" height="63" as="alternateBounds" />
          </mxGeometry>
        </mxCell>
        <mxCell id="tzgHff-u2JWfcK4r_l2z-22" value="" style="shape=tableRow;horizontal=0;startSize=0;swimlaneHead=0;swimlaneBody=0;strokeColor=inherit;top=0;left=0;bottom=0;right=0;collapsible=0;dropTarget=0;fillColor=none;points=[[0,0.5],[1,0.5]];portConstraint=eastwest;" vertex="1" parent="tzgHff-u2JWfcK4r_l2z-19">
          <mxGeometry y="63" width="90" height="62" as="geometry" />
        </mxCell>
        <mxCell id="tzgHff-u2JWfcK4r_l2z-23" value="&lt;font style=&quot;font-size: 16px;&quot;&gt;lock 47&lt;/font&gt;" style="shape=partialRectangle;html=1;whiteSpace=wrap;connectable=0;strokeColor=inherit;overflow=hidden;fillColor=none;top=0;left=0;bottom=0;right=0;pointerEvents=1;" vertex="1" parent="tzgHff-u2JWfcK4r_l2z-22">
          <mxGeometry width="90" height="62" as="geometry">
            <mxRectangle width="90" height="62" as="alternateBounds" />
          </mxGeometry>
        </mxCell>
        <mxCell id="tzgHff-u2JWfcK4r_l2z-24" value="" style="shape=tableRow;horizontal=0;startSize=0;swimlaneHead=0;swimlaneBody=0;strokeColor=inherit;top=0;left=0;bottom=0;right=0;collapsible=0;dropTarget=0;fillColor=none;points=[[0,0.5],[1,0.5]];portConstraint=eastwest;" vertex="1" parent="tzgHff-u2JWfcK4r_l2z-19">
          <mxGeometry y="125" width="90" height="63" as="geometry" />
        </mxCell>
        <mxCell id="tzgHff-u2JWfcK4r_l2z-25" value="&lt;font style=&quot;font-size: 16px;&quot;&gt;lock 31&lt;/font&gt;" style="shape=partialRectangle;html=1;whiteSpace=wrap;connectable=0;strokeColor=inherit;overflow=hidden;fillColor=none;top=0;left=0;bottom=0;right=0;pointerEvents=1;" vertex="1" parent="tzgHff-u2JWfcK4r_l2z-24">
          <mxGeometry width="90" height="63" as="geometry">
            <mxRectangle width="90" height="63" as="alternateBounds" />
          </mxGeometry>
        </mxCell>
        <mxCell id="tzgHff-u2JWfcK4r_l2z-26" value="" style="shape=tableRow;horizontal=0;startSize=0;swimlaneHead=0;swimlaneBody=0;strokeColor=inherit;top=0;left=0;bottom=0;right=0;collapsible=0;dropTarget=0;fillColor=none;points=[[0,0.5],[1,0.5]];portConstraint=eastwest;" vertex="1" parent="tzgHff-u2JWfcK4r_l2z-19">
          <mxGeometry y="188" width="90" height="62" as="geometry" />
        </mxCell>
        <mxCell id="tzgHff-u2JWfcK4r_l2z-27" value="&lt;font style=&quot;font-size: 16px;&quot;&gt;lock 15&lt;/font&gt;" style="shape=partialRectangle;html=1;whiteSpace=wrap;connectable=0;strokeColor=inherit;overflow=hidden;fillColor=none;top=0;left=0;bottom=0;right=0;pointerEvents=1;" vertex="1" parent="tzgHff-u2JWfcK4r_l2z-26">
          <mxGeometry width="90" height="62" as="geometry">
            <mxRectangle width="90" height="62" as="alternateBounds" />
          </mxGeometry>
        </mxCell>
        <mxCell id="tzgHff-u2JWfcK4r_l2z-28" value="&lt;font style=&quot;font-size: 16px;&quot;&gt;&lt;i&gt;lock 64(hidelock)&lt;/i&gt;&lt;/font&gt;" style="text;html=1;align=center;verticalAlign=middle;resizable=0;points=[];autosize=1;strokeColor=none;fillColor=none;" vertex="1" parent="1">
          <mxGeometry x="25" y="290" width="140" height="30" as="geometry" />
        </mxCell>
        <mxCell id="tzgHff-u2JWfcK4r_l2z-29" value="&lt;font style=&quot;font-size: 36px;&quot;&gt;......&lt;/font&gt;" style="text;html=1;align=center;verticalAlign=middle;resizable=0;points=[];autosize=1;strokeColor=none;fillColor=none;" vertex="1" parent="1">
          <mxGeometry x="430" y="410" width="80" height="60" as="geometry" />
        </mxCell>
        <mxCell id="tzgHff-u2JWfcK4r_l2z-30" value="&lt;i&gt;&lt;b&gt;&lt;font style=&quot;font-size: 16px;&quot;&gt;host 0&lt;/font&gt;&lt;/b&gt;&lt;/i&gt;" style="text;html=1;align=center;verticalAlign=middle;resizable=0;points=[];autosize=1;strokeColor=none;fillColor=none;" vertex="1" parent="1">
          <mxGeometry x="60" y="600" width="70" height="30" as="geometry" />
        </mxCell>
        <mxCell id="tzgHff-u2JWfcK4r_l2z-31" value="&lt;i&gt;&lt;b&gt;&lt;font style=&quot;font-size: 16px;&quot;&gt;host 1&lt;/font&gt;&lt;/b&gt;&lt;/i&gt;" style="text;html=1;align=center;verticalAlign=middle;resizable=0;points=[];autosize=1;strokeColor=none;fillColor=none;" vertex="1" parent="1">
          <mxGeometry x="210" y="600" width="70" height="30" as="geometry" />
        </mxCell>
        <mxCell id="tzgHff-u2JWfcK4r_l2z-32" value="&lt;i&gt;&lt;b&gt;&lt;font style=&quot;font-size: 16px;&quot;&gt;host 15&lt;/font&gt;&lt;/b&gt;&lt;/i&gt;" style="text;html=1;align=center;verticalAlign=middle;resizable=0;points=[];autosize=1;strokeColor=none;fillColor=none;" vertex="1" parent="1">
          <mxGeometry x="685" y="600" width="80" height="30" as="geometry" />
        </mxCell>
        <mxCell id="tzgHff-u2JWfcK4r_l2z-33" value="&lt;font style=&quot;font-size: 20px;&quot;&gt;锁管理器分布图&lt;/font&gt;" style="text;html=1;align=center;verticalAlign=middle;resizable=0;points=[];autosize=1;strokeColor=none;fillColor=none;" vertex="1" parent="1">
          <mxGeometry x="334" y="235" width="160" height="40" as="geometry" />
        </mxCell>
        <mxCell id="tzgHff-u2JWfcK4r_l2z-34" value="" style="endArrow=classic;html=1;rounded=0;curved=1;exitX=0.514;exitY=1.009;exitDx=0;exitDy=0;exitPerimeter=0;entryX=0.461;entryY=0.967;entryDx=0;entryDy=0;entryPerimeter=0;" edge="1" parent="1" source="tzgHff-u2JWfcK4r_l2z-30" target="tzgHff-u2JWfcK4r_l2z-31">
          <mxGeometry width="50" height="50" relative="1" as="geometry">
            <mxPoint x="390" y="740" as="sourcePoint" />
            <mxPoint x="440" y="690" as="targetPoint" />
            <Array as="points">
              <mxPoint x="170" y="690" />
            </Array>
          </mxGeometry>
        </mxCell>
        <mxCell id="tzgHff-u2JWfcK4r_l2z-36" value="" style="endArrow=classic;html=1;rounded=0;curved=1;exitX=0.434;exitY=0.967;exitDx=0;exitDy=0;exitPerimeter=0;entryX=0.461;entryY=1.009;entryDx=0;entryDy=0;entryPerimeter=0;" edge="1" parent="1" source="tzgHff-u2JWfcK4r_l2z-32" target="tzgHff-u2JWfcK4r_l2z-31">
          <mxGeometry width="50" height="50" relative="1" as="geometry">
            <mxPoint x="490" y="761" as="sourcePoint" />
            <mxPoint x="636" y="760" as="targetPoint" />
            <Array as="points">
              <mxPoint x="490" y="730" />
            </Array>
          </mxGeometry>
        </mxCell>
        <mxCell id="tzgHff-u2JWfcK4r_l2z-37" value="&lt;font style=&quot;font-size: 16px;&quot;&gt;&lt;i&gt;acquire(lock 1)&lt;/i&gt;&lt;/font&gt;" style="text;html=1;align=center;verticalAlign=middle;resizable=0;points=[];autosize=1;strokeColor=none;fillColor=none;" vertex="1" parent="1">
          <mxGeometry x="105" y="670" width="130" height="30" as="geometry" />
        </mxCell>
        <mxCell id="tzgHff-u2JWfcK4r_l2z-39" value="&lt;font style=&quot;font-size: 16px;&quot;&gt;&lt;i&gt;acquire(lock 1)&lt;/i&gt;&lt;/font&gt;" style="text;html=1;align=center;verticalAlign=middle;resizable=0;points=[];autosize=1;strokeColor=none;fillColor=none;" vertex="1" parent="1">
          <mxGeometry x="405" y="690" width="130" height="30" as="geometry" />
        </mxCell>
      </root>
    </mxGraphModel>
  </diagram>
</mxfile>
